<?xml version="1.0" encoding="UTF-8" standalone="no"?>
<!DOCTYPE svg PUBLIC "-//W3C//DTD SVG 1.1//EN"
 "http://www.w3.org/Graphics/SVG/1.1/DTD/svg11.dtd">
<!-- Generated by graphviz version 2.38.0 (20140413.2041)
 -->
<!-- Title: %3 Pages: 1 -->
<svg width="1008pt" height="743pt"
 viewBox="0.00 0.00 1008.00 742.95" xmlns="http://www.w3.org/2000/svg" xmlns:xlink="http://www.w3.org/1999/xlink">
<g id="graph0" class="graph" transform="scale(0.463846 0.463846) rotate(0) translate(4 1597.71)">
<title>%3</title>
<polygon fill="white" stroke="none" points="-4,4 -4,-1597.71 2169.14,-1597.71 2169.14,4 -4,4"/>
<!-- github.com/go&#45;modules&#45;by&#45;example/\nlistmodwhygraph -->
<g id="node1" class="node"><title>github.com/go&#45;modules&#45;by&#45;example/\nlistmodwhygraph</title>
<polygon fill="#e94762" stroke="none" points="1269.96,-532.059 808.956,-532.059 808.956,-472.059 1269.96,-472.059 1269.96,-532.059"/>
<text text-anchor="middle" x="1039.46" y="-508.859" font-family="Helvetica,sans-Serif" font-size="24.00">github.com/go&#45;modules&#45;by&#45;example/</text>
<text text-anchor="middle" x="1039.46" y="-482.859" font-family="Helvetica,sans-Serif" font-size="24.00">listmodwhygraph</text>
</g>
<!-- github.com/go&#45;modules&#45;by&#45;example/\nincomplete -->
<g id="node2" class="node"><title>github.com/go&#45;modules&#45;by&#45;example/\nincomplete</title>
<text text-anchor="middle" x="1141.49" y="-217.307" font-family="Helvetica,sans-Serif" font-size="24.00">github.com/go&#45;modules&#45;by&#45;example/</text>
<text text-anchor="middle" x="1141.49" y="-191.307" font-family="Helvetica,sans-Serif" font-size="24.00">incomplete</text>
</g>
<!-- github.com/go&#45;modules&#45;by&#45;example/\nlistmodwhygraph&#45;&gt;github.com/go&#45;modules&#45;by&#45;example/\nincomplete -->
<g id="edge1" class="edge"><title>github.com/go&#45;modules&#45;by&#45;example/\nlistmodwhygraph&#45;&gt;github.com/go&#45;modules&#45;by&#45;example/\nincomplete</title>
<path fill="none" stroke="black" d="M1049.99,-471.956C1068.47,-419.143 1106.74,-309.797 1127.45,-250.628"/>
<polygon fill="black" stroke="black" points="1130.86,-251.478 1130.86,-240.883 1124.25,-249.166 1130.86,-251.478"/>
</g>
<!-- github.com/kr/\npretty -->
<g id="node3" class="node"><title>github.com/kr/\npretty</title>
<text text-anchor="middle" x="1455.23" y="-379.228" font-family="Helvetica,sans-Serif" font-size="24.00">github.com/kr/</text>
<text text-anchor="middle" x="1455.23" y="-353.228" font-family="Helvetica,sans-Serif" font-size="24.00">pretty</text>
</g>
<!-- github.com/go&#45;modules&#45;by&#45;example/\nlistmodwhygraph&#45;&gt;github.com/kr/\npretty -->
<g id="edge2" class="edge"><title>github.com/go&#45;modules&#45;by&#45;example/\nlistmodwhygraph&#45;&gt;github.com/kr/\npretty</title>
<path fill="none" stroke="black" d="M1135.89,-471.993C1199.79,-452.068 1283.65,-425.923 1349.4,-405.425"/>
<polygon fill="black" stroke="black" points="1350.46,-408.761 1358.96,-402.443 1348.37,-402.078 1350.46,-408.761"/>
</g>
<!-- github.com/sirupsen/\nlogrus -->
<g id="node4" class="node"><title>github.com/sirupsen/\nlogrus</title>
<text text-anchor="middle" x="514.95" y="-409.82" font-family="Helvetica,sans-Serif" font-size="24.00">github.com/sirupsen/</text>
<text text-anchor="middle" x="514.95" y="-383.82" font-family="Helvetica,sans-Serif" font-size="24.00">logrus</text>
</g>
<!-- github.com/go&#45;modules&#45;by&#45;example/\nlistmodwhygraph&#45;&gt;github.com/sirupsen/\nlogrus -->
<g id="edge3" class="edge"><title>github.com/go&#45;modules&#45;by&#45;example/\nlistmodwhygraph&#45;&gt;github.com/sirupsen/\nlogrus</title>
<path fill="none" stroke="black" d="M880.307,-472.008C810.488,-458.824 729.072,-443.451 660.839,-430.567"/>
<polygon fill="black" stroke="black" points="661.346,-427.101 650.87,-428.685 660.047,-433.98 661.346,-427.101"/>
</g>
<!-- golang.org/x/tools -->
<g id="node5" class="node"><title>golang.org/x/tools</title>
<text text-anchor="middle" x="1156.99" y="-916.391" font-family="Helvetica,sans-Serif" font-size="24.00">golang.org/x/tools</text>
</g>
<!-- github.com/go&#45;modules&#45;by&#45;example/\nlistmodwhygraph&#45;&gt;golang.org/x/tools -->
<g id="edge4" class="edge"><title>github.com/go&#45;modules&#45;by&#45;example/\nlistmodwhygraph&#45;&gt;golang.org/x/tools</title>
<path fill="none" stroke="black" d="M1047.91,-532.302C1069.78,-610.545 1127.98,-818.79 1149.15,-894.541"/>
<polygon fill="black" stroke="black" points="1145.82,-895.634 1151.88,-904.323 1152.56,-893.75 1145.82,-895.634"/>
</g>
<!-- github.com/kr/\ntext -->
<g id="node6" class="node"><title>github.com/kr/\ntext</title>
<text text-anchor="middle" x="1791.79" y="-237.591" font-family="Helvetica,sans-Serif" font-size="24.00">github.com/kr/</text>
<text text-anchor="middle" x="1791.79" y="-211.591" font-family="Helvetica,sans-Serif" font-size="24.00">text</text>
</g>
<!-- github.com/kr/\npretty&#45;&gt;github.com/kr/\ntext -->
<g id="edge5" class="edge"><title>github.com/kr/\npretty&#45;&gt;github.com/kr/\ntext</title>
<path fill="none" stroke="black" d="M1526.61,-342.391C1580.51,-319.707 1654.53,-288.556 1710.67,-264.929"/>
<polygon fill="black" stroke="black" points="1712.37,-268.012 1720.23,-260.907 1709.65,-261.56 1712.37,-268.012"/>
</g>
<!-- github.com/davecgh/\ngo&#45;spew -->
<g id="node8" class="node"><title>github.com/davecgh/\ngo&#45;spew</title>
<text text-anchor="middle" x="136" y="-420.993" font-family="Helvetica,sans-Serif" font-size="24.00">github.com/davecgh/</text>
<text text-anchor="middle" x="136" y="-394.993" font-family="Helvetica,sans-Serif" font-size="24.00">go&#45;spew</text>
</g>
<!-- github.com/sirupsen/\nlogrus&#45;&gt;github.com/davecgh/\ngo&#45;spew -->
<g id="edge7" class="edge"><title>github.com/sirupsen/\nlogrus&#45;&gt;github.com/davecgh/\ngo&#45;spew</title>
<path fill="none" stroke="black" d="M379.211,-407.022C347.782,-407.949 314.204,-408.939 282.344,-409.878"/>
<polygon fill="black" stroke="black" points="281.958,-406.388 272.065,-410.181 282.164,-413.385 281.958,-406.388"/>
</g>
<!-- github.com/konsorten/\ngo&#45;windows&#45;terminal&#45;sequences -->
<g id="node9" class="node"><title>github.com/konsorten/\ngo&#45;windows&#45;terminal&#45;sequences</title>
<text text-anchor="middle" x="699.443" y="-165.644" font-family="Helvetica,sans-Serif" font-size="24.00">github.com/konsorten/</text>
<text text-anchor="middle" x="699.443" y="-139.644" font-family="Helvetica,sans-Serif" font-size="24.00">go&#45;windows&#45;terminal&#45;sequences</text>
</g>
<!-- github.com/sirupsen/\nlogrus&#45;&gt;github.com/konsorten/\ngo&#45;windows&#45;terminal&#45;sequences -->
<g id="edge8" class="edge"><title>github.com/sirupsen/\nlogrus&#45;&gt;github.com/konsorten/\ngo&#45;windows&#45;terminal&#45;sequences</title>
<path fill="none" stroke="black" d="M537.943,-372.589C571.546,-328.115 634.042,-245.402 670.655,-196.944"/>
<polygon fill="black" stroke="black" points="673.504,-198.98 676.739,-188.892 667.918,-194.76 673.504,-198.98"/>
</g>
<!-- github.com/pmezard/\ngo&#45;difflib -->
<g id="node10" class="node"><title>github.com/pmezard/\ngo&#45;difflib</title>
<text text-anchor="middle" x="455.268" y="-36.8" font-family="Helvetica,sans-Serif" font-size="24.00">github.com/pmezard/</text>
<text text-anchor="middle" x="455.268" y="-10.8" font-family="Helvetica,sans-Serif" font-size="24.00">go&#45;difflib</text>
</g>
<!-- github.com/sirupsen/\nlogrus&#45;&gt;github.com/pmezard/\ngo&#45;difflib -->
<g id="edge9" class="edge"><title>github.com/sirupsen/\nlogrus&#45;&gt;github.com/pmezard/\ngo&#45;difflib</title>
<path fill="none" stroke="black" d="M510.116,-372.81C499.422,-305.97 473.753,-145.535 461.71,-70.2678"/>
<polygon fill="black" stroke="black" points="465.141,-69.5525 460.105,-60.2311 458.228,-70.6585 465.141,-69.5525"/>
</g>
<!-- github.com/stretchr/\nobjx -->
<g id="node11" class="node"><title>github.com/stretchr/\nobjx</title>
<text text-anchor="middle" x="225.51" y="-173.354" font-family="Helvetica,sans-Serif" font-size="24.00">github.com/stretchr/</text>
<text text-anchor="middle" x="225.51" y="-147.354" font-family="Helvetica,sans-Serif" font-size="24.00">objx</text>
</g>
<!-- github.com/sirupsen/\nlogrus&#45;&gt;github.com/stretchr/\nobjx -->
<g id="edge10" class="edge"><title>github.com/sirupsen/\nlogrus&#45;&gt;github.com/stretchr/\nobjx</title>
<path fill="none" stroke="black" d="M477.998,-372.832C424.87,-329.427 327.04,-249.502 270.009,-202.909"/>
<polygon fill="black" stroke="black" points="272.2,-200.18 262.241,-196.563 267.771,-205.601 272.2,-200.18"/>
</g>
<!-- github.com/stretchr/\ntestify -->
<g id="node12" class="node"><title>github.com/stretchr/\ntestify</title>
<text text-anchor="middle" x="271.867" y="-650.244" font-family="Helvetica,sans-Serif" font-size="24.00">github.com/stretchr/</text>
<text text-anchor="middle" x="271.867" y="-624.244" font-family="Helvetica,sans-Serif" font-size="24.00">testify</text>
</g>
<!-- github.com/sirupsen/\nlogrus&#45;&gt;github.com/stretchr/\ntestify -->
<g id="edge11" class="edge"><title>github.com/sirupsen/\nlogrus&#45;&gt;github.com/stretchr/\ntestify</title>
<path fill="none" stroke="black" d="M484.163,-433.47C439.688,-477.459 357.546,-558.703 309.521,-606.203"/>
<polygon fill="black" stroke="black" points="307.053,-603.721 302.404,-613.242 311.975,-608.698 307.053,-603.721"/>
</g>
<!-- golang.org/x/sys -->
<g id="node13" class="node"><title>golang.org/x/sys</title>
<text text-anchor="middle" x="566.836" y="-791.167" font-family="Helvetica,sans-Serif" font-size="24.00">golang.org/x/sys</text>
</g>
<!-- github.com/sirupsen/\nlogrus&#45;&gt;golang.org/x/sys -->
<g id="edge12" class="edge"><title>github.com/sirupsen/\nlogrus&#45;&gt;golang.org/x/sys</title>
<path fill="none" stroke="black" d="M518.935,-433.309C528.686,-507.418 553.638,-697.06 563.111,-769.06"/>
<polygon fill="black" stroke="black" points="559.669,-769.729 564.443,-779.187 566.609,-768.815 559.669,-769.729"/>
</g>
<!-- golang.org/x/net -->
<g id="node15" class="node"><title>golang.org/x/net</title>
<text text-anchor="middle" x="974.278" y="-1246.4" font-family="Helvetica,sans-Serif" font-size="24.00">golang.org/x/net</text>
</g>
<!-- golang.org/x/tools&#45;&gt;golang.org/x/net -->
<g id="edge16" class="edge"><title>golang.org/x/tools&#45;&gt;golang.org/x/net</title>
<path fill="none" stroke="black" d="M1146.9,-940.804C1116.46,-995.797 1025.34,-1160.38 989.243,-1225.57"/>
<polygon fill="black" stroke="black" points="986.112,-1224 984.33,-1234.45 992.236,-1227.39 986.112,-1224"/>
</g>
<!-- golang.org/x/sync -->
<g id="node17" class="node"><title>golang.org/x/sync</title>
<text text-anchor="middle" x="1440.73" y="-1070.82" font-family="Helvetica,sans-Serif" font-size="24.00">golang.org/x/sync</text>
</g>
<!-- golang.org/x/tools&#45;&gt;golang.org/x/sync -->
<g id="edge17" class="edge"><title>golang.org/x/tools&#45;&gt;golang.org/x/sync</title>
<path fill="none" stroke="black" d="M1190.09,-940.608C1241.74,-968.721 1341.47,-1023 1398.32,-1053.94"/>
<polygon fill="black" stroke="black" points="1396.94,-1057.18 1407.4,-1058.88 1400.29,-1051.03 1396.94,-1057.18"/>
</g>
<!-- github.com/kr/\npty -->
<g id="node7" class="node"><title>github.com/kr/\npty</title>
<text text-anchor="middle" x="2068.64" y="-114.895" font-family="Helvetica,sans-Serif" font-size="24.00">github.com/kr/</text>
<text text-anchor="middle" x="2068.64" y="-88.895" font-family="Helvetica,sans-Serif" font-size="24.00">pty</text>
</g>
<!-- github.com/kr/\ntext&#45;&gt;github.com/kr/\npty -->
<g id="edge6" class="edge"><title>github.com/kr/\ntext&#45;&gt;github.com/kr/\npty</title>
<path fill="none" stroke="black" d="M1859.51,-200.776C1899.4,-183.1 1949.99,-160.679 1991.42,-142.318"/>
<polygon fill="black" stroke="black" points="1992.93,-145.477 2000.65,-138.225 1990.09,-139.077 1992.93,-145.477"/>
</g>
<!-- golang.org/x/crypto -->
<g id="node14" class="node"><title>golang.org/x/crypto</title>
<text text-anchor="middle" x="680.725" y="-1114.29" font-family="Helvetica,sans-Serif" font-size="24.00">golang.org/x/crypto</text>
</g>
<!-- golang.org/x/crypto&#45;&gt;golang.org/x/sys -->
<g id="edge13" class="edge"><title>golang.org/x/crypto&#45;&gt;golang.org/x/sys</title>
<path fill="none" stroke="black" d="M674.276,-1102.19C655.248,-1048.2 599.26,-889.358 576.561,-824.959"/>
<polygon fill="black" stroke="black" points="579.84,-823.732 573.214,-815.464 573.238,-826.059 579.84,-823.732"/>
</g>
<!-- golang.org/x/net&#45;&gt;golang.org/x/crypto -->
<g id="edge14" class="edge"><title>golang.org/x/net&#45;&gt;golang.org/x/crypto</title>
<path fill="none" stroke="black" d="M934.076,-1234.51C880.974,-1210.61 787.494,-1168.54 730.141,-1142.73"/>
<polygon fill="black" stroke="black" points="731.467,-1139.49 720.911,-1138.57 728.594,-1145.87 731.467,-1139.49"/>
</g>
<!-- golang.org/x/text -->
<g id="node16" class="node"><title>golang.org/x/text</title>
<text text-anchor="middle" x="1002.34" y="-1569.51" font-family="Helvetica,sans-Serif" font-size="24.00">golang.org/x/text</text>
</g>
<!-- golang.org/x/net&#45;&gt;golang.org/x/text -->
<g id="edge15" class="edge"><title>golang.org/x/net&#45;&gt;golang.org/x/text</title>
<path fill="none" stroke="black" d="M975.867,-1270.9C980.537,-1324.66 994.239,-1482.42 999.876,-1547.32"/>
<polygon fill="black" stroke="black" points="996.418,-1547.96 1000.77,-1557.62 1003.39,-1547.35 996.418,-1547.96"/>
</g>
</g>
</svg>
